<svg width="129" height="86" viewBox="0 0 129 86" fill="none" xmlns="http://www.w3.org/2000/svg">
<g clip-path="url(#clip0_8001_836)">
<path fill-rule="evenodd" clip-rule="evenodd" d="M35.1951 18.8738C28.6144 18.8738 23.2311 24.2501 23.2311 30.8222C23.2311 37.3943 28.6144 42.7706 35.1951 42.7706C36.5152 42.7706 37.5965 43.8505 37.5965 45.1689C37.5965 46.4872 36.5152 47.5671 35.1951 47.5671H28.9348C25.7245 47.5671 23.0977 50.1905 23.0977 53.3966C23.0977 56.6027 25.7245 59.2261 28.9348 59.2261C31.7113 59.2261 33.9831 61.4951 33.9831 64.2679C33.9831 69.327 38.1277 73.4662 43.1934 73.4662H97.2602C103.841 73.4662 109.224 68.0899 109.224 61.5177C109.224 54.9456 103.841 49.5693 97.2602 49.5693H96.1029C94.7828 49.5693 93.7017 48.4909 93.7017 47.1711C93.7017 45.8527 94.7815 44.773 96.1029 44.773H103.893C107.103 44.773 109.73 42.1494 109.73 38.9433C109.73 35.7412 107.11 33.1204 103.905 33.1138H97.6367C94.8602 33.1138 92.5884 30.8448 92.5884 28.0721C92.5884 23.013 88.4438 18.8738 83.3781 18.8738H35.1951Z" fill="url(#paint0_linear_8001_836)"/>
<path fill-rule="evenodd" clip-rule="evenodd" d="M80.3907 38.1039C88.1586 45.8716 88.1586 58.4656 80.3907 66.2334C72.6231 74.001 60.0291 74.001 52.2613 66.2334C44.4936 58.4656 44.4936 45.8716 52.2613 38.1039C60.0291 30.3361 72.6231 30.3361 80.3907 38.1039Z" fill="#DF5A28"/>
<path d="M80.3907 38.1039C88.1586 45.8716 88.1586 58.4656 80.3907 66.2334C72.6231 74.001 60.0291 74.001 52.2613 66.2334C44.4936 58.4656 44.4936 45.8716 52.2613 38.1039C60.0291 30.3361 72.6231 30.3361 80.3907 38.1039Z" stroke="#DF5A28" stroke-width="4.59011" stroke-linecap="round" stroke-linejoin="round"/>
<path d="M66.3262 58.2884V50.4852M66.3172 45.8369C65.0503 45.8369 64.0221 46.865 64.0313 48.132C64.0313 49.3989 65.0594 50.427 66.3264 50.427C67.5931 50.427 68.6214 49.3989 68.6214 48.132C68.6214 46.865 67.5931 45.8369 66.3172 45.8369Z" stroke="white" stroke-width="4.59011" stroke-linecap="round" stroke-linejoin="round"/>
<path d="M54.9092 25.6926C56.1913 20.6833 60.7355 16.9775 66.1458 16.9775C72.5505 16.9775 77.7405 22.1675 77.7405 28.5722V35.8858" stroke="#DF5A28" stroke-width="4.59011" stroke-linecap="round" stroke-linejoin="round"/>
<path fill-rule="evenodd" clip-rule="evenodd" d="M103.397 34.1413C103.397 37.6649 100.749 40.9595 97.1896 41.7596C93.6303 40.9595 90.9819 37.6649 90.9819 34.1413V31.3735C90.9819 30.7434 91.3629 30.1754 91.9464 29.9372L95.8262 28.3496C96.6999 27.9919 97.6792 27.9919 98.5529 28.3496L102.433 29.9372C102.718 30.0538 102.962 30.2527 103.134 30.5085C103.305 30.7643 103.397 31.0654 103.397 31.3735V34.1413Z" fill="#DF5A28"/>
<path d="M99.7113 33.321L96.8015 36.2309L95.0557 34.4851" stroke="white" stroke-width="1.43247" stroke-linecap="round" stroke-linejoin="round"/>
<path fill-rule="evenodd" clip-rule="evenodd" d="M39.5726 43.3341C39.5726 48.6443 35.5815 53.6095 30.2174 54.8151C24.8534 53.6095 20.8623 48.6443 20.8623 43.3341V39.1628C20.8622 38.6985 21.0005 38.2446 21.2593 37.8591C21.5182 37.4737 21.886 37.174 22.3158 36.9983L28.1628 34.6058C29.4795 34.0666 30.9554 34.0666 32.2721 34.6058L38.1191 36.9983C38.5488 37.1741 38.9165 37.4738 39.1754 37.8593C39.4342 38.2448 39.5725 38.6985 39.5726 39.1628V43.3341Z" fill="#DF5A28"/>
<path d="M34.0178 42.0979L29.6325 46.483L27.0015 43.852" stroke="white" stroke-width="2.15889" stroke-linecap="round" stroke-linejoin="round"/>
<path fill-rule="evenodd" clip-rule="evenodd" d="M47.4414 22.0843C47.4414 25.4094 44.9422 28.5184 41.5835 29.2734C38.2247 28.5184 35.7256 25.4094 35.7256 22.0843V19.4724C35.7256 18.8778 36.0852 18.3419 36.6358 18.117L40.2969 16.6189C41.1214 16.2813 42.0455 16.2813 42.87 16.6189L46.5312 18.117C46.8003 18.2271 47.0305 18.4148 47.1926 18.6561C47.3547 18.8975 47.4413 19.1816 47.4414 19.4724V22.0843Z" fill="#DF5A28"/>
<path d="M43.9633 21.3103L41.2173 24.0561L39.5698 22.4085" stroke="white" stroke-width="1.35178" stroke-linecap="round" stroke-linejoin="round"/>
<path d="M107.462 48.8823L102.758 53.5867C102.586 53.7581 102.586 54.0359 102.757 54.2072C102.929 54.3785 103.207 54.3785 103.378 54.2071L108.082 49.5027C108.254 49.3313 108.254 49.0535 108.082 48.8822C107.911 48.7109 107.633 48.7109 107.462 48.8823Z" fill="#DF5A28"/>
<path d="M107.001 52.2505L105.645 53.6072C105.473 53.7786 105.473 54.0564 105.645 54.2277C105.816 54.399 106.094 54.399 106.265 54.2276L107.622 52.8709C107.793 52.6996 107.793 52.4218 107.622 52.2505C107.451 52.0792 107.173 52.0792 107.001 52.2505Z" fill="#DF5A28"/>
<path d="M27.7382 29.5403L32.4427 24.8359C32.614 24.6645 32.6141 24.3868 32.4427 24.2154C32.2714 24.0441 31.9937 24.0442 31.8223 24.2155L27.1179 28.92C26.9465 29.0913 26.9465 29.3691 27.1178 29.5404C27.2891 29.7117 27.5669 29.7117 27.7382 29.5403Z" fill="#DF5A28"/>
<path d="M28.1988 26.1718L29.5555 24.8151C29.7268 24.6438 29.7268 24.366 29.5555 24.1947C29.3842 24.0234 29.1064 24.0234 28.9351 24.1947L27.5784 25.5514C27.4071 25.7228 27.407 26.0006 27.5784 26.1719C27.7497 26.3432 28.0274 26.3432 28.1988 26.1718Z" fill="#DF5A28"/>
<path d="M38.7544 74.305L43.4588 69.6005C43.6301 69.4292 43.6302 69.1514 43.4589 68.9801C43.2875 68.8088 43.0098 68.8088 42.8384 68.9801L38.134 73.6846C37.9626 73.8559 37.9626 74.1337 38.1339 74.305C38.3052 74.4763 38.583 74.4763 38.7544 74.305Z" fill="#DF5A28"/>
<path d="M39.2149 70.9367L40.5716 69.58C40.7429 69.4087 40.743 69.1309 40.5716 68.9596C40.4003 68.7883 40.1226 68.7883 39.9512 68.9596L38.5945 70.3163C38.4232 70.4877 38.4232 70.7655 38.5945 70.9368C38.7658 71.1081 39.0436 71.1081 39.2149 70.9367Z" fill="#DF5A28"/>
<path d="M87.541 20.7972L92.2454 16.0927C92.4168 15.9214 92.4168 15.6436 92.2455 15.4723C92.0742 15.301 91.7964 15.301 91.6251 15.4723L86.9206 20.1768C86.7493 20.3481 86.7492 20.6259 86.9205 20.7972C87.0919 20.9685 87.3696 20.9685 87.541 20.7972Z" fill="#DF5A28"/>
<path d="M88.001 17.4289L89.3577 16.0722C89.5291 15.9009 89.5291 15.6231 89.3578 15.4518C89.1865 15.2805 88.9087 15.2805 88.7374 15.4518L87.3807 16.8085C87.2093 16.9799 87.2093 17.2576 87.3806 17.4289C87.5519 17.6003 87.8297 17.6002 88.001 17.4289Z" fill="#DF5A28"/>
<path d="M103.254 62.2849C102.484 61.8403 101.499 62.1042 101.054 62.8742C100.61 63.6443 100.874 64.629 101.644 65.0736C102.414 65.5182 103.399 65.2544 103.843 64.4843C104.288 63.7142 104.024 62.7295 103.254 62.2849Z" fill="#DF5A28"/>
<path d="M113.589 42.343C114.184 42.6867 114.388 43.4481 114.044 44.0435C113.7 44.6389 112.939 44.8429 112.344 44.4991C111.748 44.1554 111.544 43.394 111.888 42.7986C112.232 42.2032 112.993 41.9992 113.589 42.343Z" fill="#DF5A28"/>
<path d="M97.3421 55.3337C96.6978 54.9617 95.874 55.1824 95.502 55.8267C95.13 56.471 95.3508 57.2948 95.995 57.6668C96.6393 58.0388 97.4632 57.818 97.8351 57.1738C98.2071 56.5295 97.9864 55.7056 97.3421 55.3337Z" fill="white"/>
<path d="M26.8073 62.7912C26.8073 63.8059 25.985 64.6273 24.9692 64.6273C23.9534 64.6273 23.1353 63.8019 23.1353 62.7912C23.1353 61.7766 23.9576 60.9553 24.9732 60.9553C25.989 60.9553 26.8073 61.7766 26.8073 62.7912ZM81.3641 13.1305C81.3641 14.1452 80.5418 14.9666 79.5262 14.9666C78.5104 14.9666 77.6921 14.141 77.6921 13.1305C77.6921 12.1157 78.5144 11.2944 79.5302 11.2944C80.546 11.2944 81.3641 12.1157 81.3641 13.1305Z" stroke="#DF5A28" stroke-width="0.874333" stroke-miterlimit="10"/>
<path d="M87.6596 70.4744C87.6596 70.4744 93.072 67.6752 95.1992 63.5406C95.3289 63.2886 95.244 62.9709 94.9959 62.8321C94.8342 62.7421 94.5924 62.7169 94.2324 62.8671C93.2719 63.2686 90.344 67.9302 87.6596 70.4744ZM35.7256 57.9953C35.7256 57.9953 37.3389 55.2978 39.5354 54.3342C39.6693 54.2754 39.8302 54.3292 39.8937 54.4613C39.9349 54.5474 39.9402 54.6727 39.8514 54.8533C39.6141 55.3351 37.1209 56.6941 35.7256 57.9953ZM44.2939 35.4382C44.2939 35.4382 45.9073 32.7407 48.1037 31.7771C48.2374 31.7183 48.3984 31.7721 48.4619 31.9042C48.5032 31.9904 48.5085 32.1156 48.4196 32.2962C48.1824 32.778 45.6891 34.1371 44.2939 35.4382Z" fill="#DF5A28"/>
<path d="M103.524 22.857C100.596 25.3942 95.5809 24.4063 95.5809 24.4063C95.5809 24.4063 95.3168 19.3052 98.2474 16.7698C101.176 14.2328 106.188 15.2185 106.188 15.2185C106.188 15.2185 106.452 20.3197 103.524 22.857Z" fill="url(#paint1_linear_8001_836)"/>
</g>
<defs>
<linearGradient id="paint0_linear_8001_836" x1="68.2611" y1="104.074" x2="67.2002" y2="-40.5254" gradientUnits="userSpaceOnUse">
<stop stop-color="white"/>
<stop offset="1" stop-color="#EEEEEE"/>
</linearGradient>
<linearGradient id="paint1_linear_8001_836" x1="91.968" y1="31.3985" x2="114.002" y2="2.29801" gradientUnits="userSpaceOnUse">
<stop stop-color="white"/>
<stop offset="1" stop-color="#EEEEEE"/>
</linearGradient>
<clipPath id="clip0_8001_836">
<rect width="129" height="86" fill="white"/>
</clipPath>
</defs>
</svg>
