<svg width="16" height="16" viewBox="0 0 16 16" fill="none" xmlns="http://www.w3.org/2000/svg">
<path d="M9.15417 11.9135L10.7846 13.5439L12.415 11.9135" stroke="#002244" stroke-linecap="round" stroke-linejoin="round"/>
<path fill-rule="evenodd" clip-rule="evenodd" d="M14.6962 11.5869C14.6962 13.7475 12.9438 15.4999 10.7832 15.4999C8.62251 15.4999 6.87012 13.7475 6.87012 11.5869C6.87012 9.42622 8.62251 7.67383 10.7832 7.67383C12.9438 7.67383 14.6962 9.42622 14.6962 11.5869V11.5869Z" stroke="#002244" stroke-linejoin="round"/>
<path d="M10.7813 9.6309L10.7812 13.5439" stroke="#002244" stroke-linecap="round" stroke-linejoin="round"/>
<path d="M6.21739 15.5003H2.30435C1.58435 15.5003 1 14.916 1 14.196V1.80469" stroke="#002244" stroke-linecap="round" stroke-linejoin="round"/>
<path d="M13.3913 0.5H2.30435C1.58435 0.5 1 1.08435 1 1.80435C1 2.52435 1.58435 3.1087 2.30435 3.1087H13.3913V6.04348" stroke="#002244" stroke-linecap="round" stroke-linejoin="round"/>
<path d="M2.30371 1.80469H12.7385" stroke="#002244" stroke-linecap="round" stroke-linejoin="round"/>
</svg>
